<?xml version="1.0" encoding="utf-8"?>
<?xml-stylesheet type="text/xsl" href="rss1.xsl"?>
<rss version="2.0" xmlns:atom="http://www.w3.org/2005/Atom" xmlns:content="http://purl.org/rss/1.0/modules/content/" xmlns:dc="http://purl.org/dc/elements/1.1/" xmlns:media="http://search.yahoo.com/mrss/">
<channel>
 <title>Getty</title>
 <link>http://www.gettyimg.com/</link>
 <atom:link href="http://www.gettyimg.com/" rel="self" type="application/rss+xml" />

 
                <item>
                <title><![CDATA[【HD Live Performances】FEED - Rita Ora - Medley,Liverpool,Eurovision Song Contest 2023,8 May 2023(FEED-1080i-MPA2.0-@rt-v-k)-HDMania]]></title>
                <link><![CDATA[https://sharemania.us/threads/rita-ora-medley-liverpool-eurovision-song-contest-2023-8-may-2023-feed-1080i-mpa2-0-rt-v-k-hdmania.220619/]]></link>
                <description><![CDATA[<article>
<blockquote class="messageText SelectQuoteContainer ugc baseHtml">
<div style="text-align: center"><span style="font-family: 'Verdana'"><span style="font-size: 22px"><span style="color: #ff0000"><b><i>Rita Ora - Medley</i></b>,Liverpool,Eurovision Song Contest 2023,8 May 2023(FEED-1080i-MPA2.0-@rt-v-k)-HDMania</span></span></span><br>
<br>
<a href="https://postimg.cc/nX6fCxpx" target="_blank" class="externalLink" rel="nofollow"><img src="https://i.postimg.cc/nX6fCxpx/Rita-Ora-Medley-Liverpool-Eurovision-Song-Contest-2023-8-May-2023-FEED-1080i-MPA2-0-rt-v-k-HDMan.png" class="bbCodeImage LbImage" alt="[​IMG]" data-url="https://i.postimg.cc/nX6fCxpx/Rita-Ora-Medley-Liverpool-Eurovision-Song-Contest-2023-8-May-2023-FEED-1080i-MPA2-0-rt-v-k-HDMan.png"></a> <a href="https://postimg.cc/t1WQ6c4x" target="_blank" class="externalLink" rel="nofollow"><img src="https://i.postimg.cc/t1WQ6c4x/Rita-Ora-Medley-Liverpool-Eurovision-Song-Contest-2023-8-May-2023-FEED-1080i-MPA2-0-rt-v-k-HDMan.png" class="bbCodeImage LbImage" alt="[​IMG]" data-url="https://i.postimg.cc/t1WQ6c4x/Rita-Ora-Medley-Liverpool-Eurovision-Song-Contest-2023-8-May-2023-FEED-1080i-MPA2-0-rt-v-k-HDMan.png"></a> <a href="https://postimg.cc/gXp9HKxB" target="_blank" class="externalLink" rel="nofollow"><img src="https://i.postimg.cc/gXp9HKxB/Rita-Ora-Medley-Liverpool-Eurovision-Song-Contest-2023-8-May-2023-FEED-1080i-MPA2-0-rt-v-k-HDMan.png" class="bbCodeImage LbImage" alt="[​IMG]" data-url="https://i.postimg.cc/gXp9HKxB/Rita-Ora-Medley-Liverpool-Eurovision-Song-Contest-2023-8-May-2023-FEED-1080i-MPA2-0-rt-v-k-HDMan.png"></a><br>
<br>
<a href="https://postimg.cc/FdVMWJcF" target="_blank" class="externalLink" rel="nofollow"><img src="https://i.postimg.cc/FdVMWJcF/Rita-Ora-Medley-Liverpool-Eurovision-Song-Contest-2023-8-May-2023-FEED-1080i-MPA2-0-rt-v-k-HDMan.png" class="bbCodeImage LbImage" alt="[​IMG]" data-url="https://i.postimg.cc/FdVMWJcF/Rita-Ora-Medley-Liverpool-Eurovision-Song-Contest-2023-8-May-2023-FEED-1080i-MPA2-0-rt-v-k-HDMan.png"></a> <a href="https://postimg.cc/ZvY11KF8" target="_blank" class="externalLink" rel="nofollow"><img src="https://i.postimg.cc/ZvY11KF8/Rita-Ora-Medley-Liverpool-Eurovision-Song-Contest-2023-8-May-2023-FEED-1080i-MPA2-0-rt-v-k-HDMan.png" class="bbCodeImage LbImage" alt="[​IMG]" data-url="https://i.postimg.cc/ZvY11KF8/Rita-Ora-Medley-Liverpool-Eurovision-Song-Contest-2023-8-May-2023-FEED-1080i-MPA2-0-rt-v-k-HDMan.png"></a> <a href="https://postimg.cc/4nJkKBkY" target="_blank" class="externalLink" rel="nofollow"><img src="https://i.postimg.cc/4nJkKBkY/Rita-Ora-Medley-Liverpool-Eurovision-Song-Contest-2023-8-May-2023-FEED-1080i-MPA2-0-rt-v-k-HDMan.png" class="bbCodeImage LbImage" alt="[​IMG]" data-url="https://i.postimg.cc/4nJkKBkY/Rita-Ora-Medley-Liverpool-Eurovision-Song-Contest-2023-8-May-2023-FEED-1080i-MPA2-0-rt-v-k-HDMan.png"></a><br>
<br>
<div class="ToggleTriggerAnchor bbCodeSpoilerContainer">
<button type="button" class="button bbCodeSpoilerButton ToggleTrigger Tooltip JsOnly" data-target="> .SpoilerTarget"><span>Spoiler: <span class="SpoilerTitle">MediaInfo</span></span></button>
<div class="SpoilerTarget bbCodeSpoilerText">Format : MPEG-TS<br>
File size : 1.29 GiB<br>
Duration : 4 min 30 s<br>
Overall bit rate mode : Variable<br>
Overall bit rate  : 41.0 Mb/s<br>
Frame rate : 25.000 FPS<br>
<br>
Video<br>
ID : 512 (0x200)<br>
Menu ID : 1 (0x1)<br>
Format : AVC<br>
Format/Info : Advanced Video Codec<br>
Format profile : High 4:2:2@L4<br>
Format settings : 3 Ref Frames<br>
Format settings, CABAC : No<br>
Format settings, Reference frames : 3 frames<br>
Codec ID : 27<br>
Duration : 4 min 30 s<br>
Bit rate mode : Variable<br>
Bit rate : 35.8 Mb/s<br>
Maximum bit rate : 36.9 Mb/s<br>
Width : 1 920 pixels<br>
Height : 1 080 pixels<br>
Display aspect ratio : 16:9<br>
Frame rate : 25.000 FPS<br>
Color space : YUV<br>
Chroma subsampling : 4:2:2<br>
Bit depth : 8 bits<br>
Scan type : Interlaced<br>
Scan type, store method : Separated fields<br>
Scan order : Top Field First<br>
Bits/(Pixel*Frame) : 0.691<br>
Stream size : 1.13 GiB (87%)<br>
Color range : Limited<br>
Color primaries : BT.709<br>
Transfer characteristics : BT.709<br>
Matrix coefficients : BT.709<br>
<br>
Audio #1<br>
ID : 4112 (0x1010)<br>
Menu ID : 1 (0x1)<br>
Format : MPEG Audio<br>
Format version : Version 1<br>
Format profile : Layer 2<br>
Format settings : Dual mono<br>
Codec ID : 3<br>
Duration : 4 min 30 s<br>
Bit rate mode : Constant<br>
Bit rate : 384 kb/s<br>
Channel(s) : 2 channels<br>
Sampling rate : 48.0 kHz<br>
Frame rate : 41.667 FPS (1152 SPF)<br>
Compression mode : Lossy<br>
Delay relative to video : 11 ms<br>
Stream size : 12.4 MiB (1%)<br>
Language : English<br>
Language, more info : Clean effects<br>
<br>
Audio #2<br>
ID : 4128 (0x1020)<br>
Menu ID : 1 (0x1)<br>
Format : MPEG Audio<br>
Format version : Version 1<br>
Format profile : Layer 2<br>
Format settings : Dual mono<br>
Codec ID : 3<br>
Duration : 4 min 30 s<br>
Bit rate mode : Constant<br>
Bit rate : 384 kb/s<br>
Channel(s) : 2 channels<br>
Sampling rate : 48.0 kHz<br>
Frame rate : 41.667 FPS (1152 SPF)<br>
Compression mode : Lossy<br>
Delay relative to video : 11 ms<br>
Stream size : 12.4 MiB (1%)<br>
Language : English<br>
Language, more info : Clean effects<br>
<br>
Audio #3<br>
ID : 4144 (0x1030)-1<br>
Menu ID  : 1 (0x1)<br>
Format : Dolby E<br>
Format settings : Little<br>
Muxing mode : SMPTE ST 302 / SMPTE ST 337<br>
Codec ID : 6<br>
Duration : 4 min 30 s<br>
Bit rate mode : Constant<br>
Bit rate : 1 291 kb/s<br>
Channel(s) : 6 channels<br>
Channel layout : L C Ls X R LFE Rs X<br>
Sampling rate : 48.0 kHz<br>
Frame rate : 25.000 FPS (1920 SPF)<br>
Bit depth : 20 bits<br>
Delay relative to video : 9 ms<br>
Stream size : 41.6 MiB (3%)<br>
Title : ESC 2023<br>
Language : English<br>
Language, more info : Clean effects<br>
<br>
Audio #4<br>
ID : 4144 (0x1030)-2<br>
Menu ID : 1 (0x1)<br>
Format : Dolby E<br>
Format settings : Little<br>
Muxing mode : SMPTE ST 302 / SMPTE ST 337<br>
Codec ID : 6<br>
Duration : 4 min 30 s<br>
Bit rate mode : Constant<br>
Bit rate : 505 kb/s<br>
Channel(s) : 2 channels<br>
Channel layout : X X X L X X X R<br>
Sampling rate : 48.0 kHz<br>
Frame rate : 25.000 FPS (1920 SPF)<br>
Bit depth : 20 bits<br>
Delay relative to video : 9 ms<br>
Stream size : 16.3 MiB (1%)<br>
Title : NEP UHD1 2.0<br>
Language : English<br>
Language, more info : Clean effects</div>
</div><br>
~~~~~~~~~~~~~~~~~~~~~~~~~~~~~~~~~~~<br>
<div class="bbCodeBlock bbCodeVfcHH HiddenContent">
<div class="attribution type">Hidden Content:</div>
<blockquote>You must either reply or click 'Like' to see the hidden information contained here.</blockquote>
</div></div>
<div class="messageTextEndMarker">&nbsp;</div>
</blockquote>
</article>]]></description>
                <author><![CDATA[art-v-k]]></author>
                </item>

                </channel></rss>